# xmcd CD database file
#
# Track frame offsets:
#	150
#	16191
#	34210
#	58592
#
# Disc length: 1013 seconds
#
# Revision: 2
# Processed by: cddbd v1.5.2PL0 Copyright (c) Steve Scherf et al.
# Submitted via: CDex 1.51
#
DISCID=2903f304
DTITLE=Noble Savages feat. Tobi Schlegel - Can We Talk
DYEAR=1997
DGENRE=Pop
TTITLE0=Can We Talk (Radio Mix)
TTITLE1=Can We Talk (Video Version)
TTITLE2=Can We Talk (Extended Version))
TTITLE3=Indego Reggae
EXTD=YEAR: 1997
EXTT0=
EXTT1=
EXTT2=
EXTT3=
PLAYORDER=
